<svg xmlns="http://www.w3.org/2000/svg" width="50" height="72.025" viewBox="0 0 50 72.025"><g transform="translate(-20 -3.519)"><g transform="translate(20 26.384)" fill="#3b8d4e" stroke="#fff" stroke-width="4"><ellipse cx="25" cy="24.58" rx="25" ry="24.58" stroke="none"/><ellipse cx="25" cy="24.58" rx="23" ry="22.58" fill="none"/></g><path d="M11.644-.728c5.3,1,0,6.116,0,12.728s5.632,11.734-.514,11.734S0,18.374,0,11.763,6.345-1.724,11.644-.728Z" transform="translate(31.935 18.252)" fill="#3b8d4e"/><path d="M2.422-.722c-5.443,1.027,0,6.309,0,13.128s-5.785,12.1.528,12.1S13.92,19.885,13.92,13.066,7.865-1.75,2.422-.722Z" transform="translate(44.719 18.258)" fill="#6eff8f"/><g transform="translate(27.877 13.781)" fill="none" stroke="#fff" stroke-width="4"><ellipse cx="17.123" cy="15.755" rx="17.123" ry="15.755" stroke="none"/><ellipse cx="17.123" cy="15.755" rx="15.123" ry="13.755" fill="none"/></g><path d="M66,10.931C66-1.55,75.252-.43,75.252-.43" transform="translate(-20.667 6)" fill="none" stroke="#fff" stroke-width="4"/><line y2="47.264" transform="translate(45.417 14.174)" fill="none" stroke="#fff" stroke-width="4"/><path d="M64.785,34.09c0,10.732-9.822,15.754-14.045,15.665" transform="translate(-4.642 -5.228)" fill="none" stroke="#fff" stroke-width="4"/></g></svg>